#!OML:ASF H:\GeneralSubjects\Female5\Project 1\Capture day 1\Session 1\Female5.ASF
:FULLY-SPECIFIED
:DEGREES
828
root -11.71 16.3065 1.66562 -167.752 5.3111 -181.042
lowerback 9.70682 0.244328 5.58916
upperback -9.78815 2.35206 1.98315
thorax -16.4496 0.893845 -1.5235
lowerneck -15.5115 5.65471 7.14711
upperneck 29.1772 11.0471 -8.47448
head 13.2733 5.36325 -2.53224
rclavicle 1.23246e-014 0
rhumerus -55.5869 14.0757 -74.6167
rradius 33.4693
rwrist -11.0432
rhand -28.3852 -18.0353
rfingers 7.12502
rthumb -1.75795 -48.0078
lclavicle 1.23246e-014 0
lhumerus -48.6084 1.88883 77.4691
lradius 35.4284
lwrist -2.47934
lhand -28.4849 27.484
lfingers 7.12502
lthumb -1.85425 57.4557
rfemur -12.2705 12.2146 25.6407
rtibia 9.27839
rfoot -16.2786 -6.31079
rtoes 17.4617
lfemur -31.2323 8.67173 -30.206
ltibia 40.8254
lfoot 7.02648 -2.92463
ltoes -49.189
829
root -11.8058 16.3172 1.65655 -167.814 5.28986 -181.14
lowerback 9.74346 0.229375 5.39006
upperback -9.74882 2.28896 1.99615
thorax -16.4314 0.886242 -1.38285
lowerneck -15.7376 5.59792 7.16432
upperneck 29.4259 10.9124 -8.28726
head 13.3996 5.31824 -2.48087
rclavicle 7.15625e-015 -3.49861e-014
rhumerus -55.0768 13.8642 -74.2365
rradius 33.6872
rwrist -11.3098
rhand -28.791 -17.9555
rfingers 7.12502
rthumb -2.14991 -47.9244
lclavicle 7.15625e-015 -3.49861e-014
lhumerus -48.8621 1.34796 77.6937
lradius 35.4375
lwrist -2.83649
lhand -28.1456 27.2472
lfingers 7.12502
lthumb -1.52658 57.2215
rfemur -11.8702 11.6678 25.111
rtibia 8.52371
rfoot -15.655 -6.36976
rtoes 15.6626
lfemur -31.7146 8.91534 -29.0598
ltibia 41.4976
lfoot 5.50105 -5.5308
ltoes -40.84
830
root -11.9091 16.3277 1.64379 -167.965 5.26854 -181.19
lowerback 9.82806 0.205382 5.34507
upperback -9.68793 2.23639 1.99145
thorax -16.4135 0.862216 -1.35116
lowerneck -15.3534 5.64499 7.21545
upperneck 28.9069 10.8927 -8.3688
head 13.1069 5.30542 -2.53709
rclavicle -5.46658e-015 -1.74931e-014
rhumerus -54.7741 13.8919 -74.1686
rradius 34.1151
rwrist -11.9948
rhand -29.514 -18.2996
rfingers 7.12502
rthumb -2.84814 -48.2604
lclavicle -5.46658e-015 -1.74931e-014
lhumerus -48.9298 1.11686 77.6643
lradius 35.2
lwrist -3.33828
lhand -27.7857 26.9512
lfingers 7.12502
lthumb -1.17891 56.9277
rfemur -11.4276 12.62 24.6341
rtibia 8.1875
rfoot -16.2288 -7.25457
rtoes 14.1809
lfemur -31.9104 9.29712 -27.7672
ltibia 41.888
lfoot 3.39679 -7.22168
ltoes -33.2295
831
root -12.0173 16.3423 1.63179 -168.162 5.23045 -181.153
lowerback 10.0245 0.14252 5.56611
upperback -9.65014 2.17965 1.92727
thorax -16.4924 0.796837 -1.53666
lowerneck -15.3158 5.62039 6.97382
upperneck 28.9222 10.7796 -7.9706
head 13.0497 5.27336 -2.3646
rclavicle 1.12313e-014 -4.45278e-014
rhumerus -54.5297 13.7434 -74.1824
rradius 34.5447
rwrist -12.5262
rhand -29.4384 -18.1528
rfingers 7.12502
rthumb -2.77513 -48.1145
lclavicle 1.12313e-014 -4.45278e-014
lhumerus -48.8918 0.994799 77.384
lradius 34.7488
lwrist -3.77403
lhand -27.5254 26.477
lfingers 7.12502
lthumb -0.92754 56.4547
rfemur -10.9212 13.2597 24.2224
rtibia 7.77584
rfoot -16.6203 -7.91514
rtoes 11.98
lfemur -31.8268 9.08691 -25.9444
ltibia 42.1518
lfoot 0.23039 -8.87633
ltoes -28.5763
832
root -12.1239 16.3567 1.61808 -168.273 5.20563 -181.17
lowerback 10.0879 0.111657 5.5062
upperback -9.64622 2.12005 1.89099
thorax -16.5318 0.769743 -1.53104
lowerneck -15.389 5.60607 6.96429
upperneck 29.152 10.7329 -7.75446
head 13.14 5.27932 -2.28507
rclavicle 4.96962e-016 4.29375e-014
rhumerus -54.4372 13.6698 -74.2781
rradius 35.0905
rwrist -13.2539
rhand -29.4563 -18.2165
rfingers 7.12502
rthumb -2.79234 -48.1779
lclavicle 4.96962e-016 4.29375e-014
lhumerus -48.8533 0.80061 77.0286
lradius 34.3193
lwrist -3.99
lhand -27.2371 26.3221
lfingers 7.12502
lthumb -0.649059 56.3009
rfemur -10.5923 13.5771 23.7479
rtibia 7.44324
rfoot -16.7901 -8.37953
rtoes 8.65292
lfemur -31.7757 9.07003 -24.1144
ltibia 42.4432
lfoot -3.79546 -9.44311
ltoes -21.3033
833
root -12.2307 16.3674 1.59799 -168.372 5.24039 -181.206
lowerback 10.0496 0.126428 5.19282
upperback -9.63706 2.07975 1.9097
thorax -16.5017 0.789302 -1.32423
lowerneck -15.4786 5.51694 7.01694
upperneck 29.2395 10.6207 -7.82852
head 13.1932 5.2256 -2.33958
rclavicle -9.83984e-015 -9.54166e-015
rhumerus -54.5365 13.8716 -74.4914
rradius 35.8175
rwrist -13.9492
rhand -30.0215 -18.9554
rfingers 7.12502
rthumb -3.33827 -48.909
lclavicle -9.83984e-015 -9.54166e-015
lhumerus -48.8487 0.976736 76.488
lradius 33.9781
lwrist -4.38351
lhand -26.9672 26.7233
lfingers 7.12502
lthumb -0.388388 56.7027
rfemur -10.2872 13.9877 23.2497
rtibia 7.20222
rfoot -17.1163 -8.85201
rtoes 6.1467
lfemur -31.3943 8.77259 -21.9329
ltibia 42.1679
lfoot -8.53544 -8.5115
ltoes -14.8969
834
root -12.3419 16.3749 1.57188 -168.548 5.31196 -181.195
lowerback 10.0487 0.142072 4.97124
upperback -9.62104 2.05401 1.9058
thorax -16.4846 0.801358 -1.19824
lowerneck -15.5095 5.45159 7.08425
upperneck 29.3135 10.5614 -7.93608
head 13.2366 5.19746 -2.40173
rclavicle -4.17448e-015 -6.36111e-015
rhumerus -54.7516 14.0879 -74.8519
rradius 36.4266
rwrist -13.8069
rhand -30.283 -19.3936
rfingers 7.12502
rthumb -3.59077 -49.3431
lclavicle -4.17448e-015 -6.36111e-015
lhumerus -48.8014 1.66756 75.615
lradius 33.5831
lwrist -4.92388
lhand -27.2411 27.3473
lfingers 7.12502
lthumb -0.652944 57.326
rfemur -9.87297 14.5715 22.7981
rtibia 7.00804
rfoot -17.7034 -9.37257
rtoes 5.70727
lfemur -30.7094 8.50531 -19.6243
ltibia 41.919
lfoot -12.8139 -6.3568
ltoes -13.8722
835
root -12.4594 16.3778 1.54346 -168.749 5.41789 -181.174
lowerback 10.0425 0.156818 4.79895
upperback -9.58562 2.02403 1.86507
thorax -16.4373 0.801362 -1.13983
lowerneck -15.4853 5.45358 7.09691
upperneck 29.3523 10.5649 -7.90386
head 13.2465 5.20771 -2.39107
rclavicle 5.66536e-015 -4.45278e-014
rhumerus -54.8994 14.2563 -75.2916
rradius 36.7802
rwrist -13.4136
rhand -29.9648 -18.9796
rfingers 7.12502
rthumb -3.28351 -48.934
lclavicle 5.66536e-015 -4.45278e-014
lhumerus -48.6935 2.25846 74.7033
lradius 33.2666
lwrist -4.76487
lhand -28.1123 27.7955
lfingers 7.12502
lthumb -1.49435 57.77
rfemur -9.49622 15.1839 22.3619
rtibia 6.94449
rfoot -18.274 -9.79007
rtoes 5.56917
lfemur -29.7328 7.96282 -17.0791
ltibia 41.0983
lfoot -16.4097 -2.79026
ltoes -16.39
836
root -12.5822 16.3723 1.51512 -168.953 5.54148 -181.086
lowerback 10.0299 0.16431 4.62273
upperback -9.53979 1.9857 1.84861
thorax -16.3744 0.800265 -1.04952
lowerneck -15.3304 5.48936 7.12342
upperneck 29.2788 10.5744 -7.80844
head 13.1782 5.23057 -2.36154
rclavicle 2.68359e-015 -1.74931e-014
rhumerus -54.9516 14.4781 -75.6757
rradius 36.9523
rwrist -13.0669
rhand -29.7036 -18.6
rfingers 7.12502
rthumb -3.03119 -48.5582
lclavicle 2.68359e-015 -1.74931e-014
lhumerus -48.7119 2.76626 73.8248
lradius 33.1801
lwrist -4.2543
lhand -28.4264 28.0904
lfingers 7.12502
lthumb -1.79773 58.0626
rfemur -9.2118 15.4146 21.9892
rtibia 6.98529
rfoot -18.51 -9.79184
rtoes 5.16251
lfemur -28.5108 7.10254 -14.3324
ltibia 39.6806
lfoot -19.0386 1.88374
ltoes -18.4087
837
root -12.7084 16.3547 1.48379 -169.157 5.66929 -180.999
lowerback 9.9608 0.170858 4.34545
upperback -9.51484 1.93503 1.86
thorax -16.3041 0.809662 -0.867802
lowerneck -15.1488 5.44112 7.18411
upperneck 29.1988 10.4765 -7.79033
head 13.0986 5.20257 -2.38751
rclavicle 3.8763e-015 2.3059e-014
rhumerus -55.0834 14.8837 -76.0777
rradius 37.0511
rwrist -12.7424
rhand -29.9563 -18.9314
rfingers 7.12502
rthumb -3.27527 -48.886
lclavicle 3.8763e-015 2.3059e-014
lhumerus -48.8745 3.3946 72.9364
lradius 33.2136
lwrist -3.90699
lhand -28.1905 28.6539
lfingers 7.12502
lthumb -1.56986 58.6278
rfemur -9.00003 15.38 21.598
rtibia 7.15094
rfoot -18.6499 -9.32381
rtoes 6.24964
lfemur -27.01 5.81972 -11.4999
ltibia 37.9885
lfoot -20.4739 6.85845
ltoes -21.9912
838
root -12.84 16.3279 1.45109 -169.39 5.77799 -180.882
lowerback 9.93095 0.171139 4.09721
upperback -9.4745 1.88409 1.89113
thorax -16.2406 0.816052 -0.680487
lowerneck -15.2558 5.47016 7.05323
upperneck 29.3853 10.5536 -7.65793
head 13.1897 5.24088 -2.29638
rclavicle -8.94531e-016 7.15625e-015
rhumerus -55.4295 15.7813 -76.7794
rradius 37.3215
rwrist -13.1179
rhand -30.106 -19.0939
rfingers 7.12502
rthumb -3.41985 -49.0462
lclavicle -8.94531e-016 7.15625e-015
lhumerus -49.0249 3.83225 72.2379
lradius 33.2835
lwrist -3.22927
lhand -28.9698 29.097
lfingers 7.12502
lthumb -2.32251 59.0641
rfemur -8.95684 15.4913 21.2443
rtibia 7.78147
rfoot -18.9316 -9.09014
rtoes 5.97882
lfemur -25.205 3.73457 -8.31554
ltibia 36.3209
lfoot -22.0381 8.61534
ltoes -24.1933
839
root -12.9815 16.2949 1.4207 -169.628 5.894 -180.707
lowerback 10.0025 0.18665 3.87487
upperback -9.42762 1.8668 1.94614
thorax -16.235 0.834897 -0.490124
lowerneck -15.4822 5.46529 6.96582
upperneck 29.6123 10.5414 -7.49473
head 13.3155 5.24008 -2.21313
rclavicle -1.44119e-014 3.57812e-014
rhumerus -55.7134 16.469 -77.2782
rradius 37.4741
rwrist -13.1612
rhand -29.7934 -18.7892
rfingers 7.12502
rthumb -3.11795 -48.7462
lclavicle -1.44119e-014 3.57812e-014
lhumerus -49.1878 4.12504 71.6894
lradius 33.4621
lwrist -2.58159
lhand -30.056 29.0843
lfingers 7.12502
lthumb -3.37158 59.0374
rfemur -9.23861 14.7346 20.8319
rtibia 8.86661
rfoot -18.8063 -8.12746
rtoes 5.57492
lfemur -23.6944 2.97458 -5.82189
ltibia 33.9815
lfoot -22.2645 11.1715
ltoes -23.7811
840
root -13.1331 16.2518 1.39085 -169.83 6.02908 -180.651
lowerback 10.0585 0.209427 3.50904
upperback -9.41743 1.83002 1.95525
thorax -16.2657 0.85753 -0.266592
lowerneck -15.3294 5.51499 7.27769
upperneck 29.481 10.5884 -7.71816
head 13.2671 5.27216 -2.34907
rclavicle 1.12313e-014 -9.54166e-015
rhumerus -55.6907 16.4386 -77.2854
rradius 37.1964
rwrist -12.2693
rhand -29.4953 -18.3818
rfingers 7.12502
rthumb -2.83009 -48.3427
lclavicle 1.12313e-014 -9.54166e-015
lhumerus -49.4185 4.40768 71.1431
lradius 33.7085
lwrist -2.35639
lhand -30.1656 28.9146
lfingers 7.12502
lthumb -3.47739 58.8659
rfemur -9.70485 13.4655 20.1656
rtibia 10.0739
rfoot -18.3895 -6.7784
rtoes 5.17553
lfemur -22.1647 1.70718 -3.5767
ltibia 31.5014
lfoot -22.2728 14.3164
ltoes -22.2488
